<svg xmlns="http://www.w3.org/2000/svg" xmlns:xlink="http://www.w3.org/1999/xlink" viewBox="0 0 50 50" fill="#F8F8F8">
  <path d="M21 2C19.354545 2 18 3.3545455 18 5L18 7L10.154297 7 A 1.0001 1.0001 0 0 0 9.984375 6.9863281 A 1.0001 1.0001 0 0 0 9.8398438 7L8 7 A 1.0001 1.0001 0 1 0 8 9L9 9L9 45C9 46.645455 10.354545 48 12 48L38 48C39.645455 48 41 46.645455 41 45L41 9L42 9 A 1.0001 1.0001 0 1 0 42 7L40.167969 7 A 1.0001 1.0001 0 0 0 39.841797 7L32 7L32 5C32 3.3545455 30.645455 2 29 2L21 2 z M 21 4L29 4C29.554545 4 30 4.4454545 30 5L30 7L20 7L20 5C20 4.4454545 20.445455 4 21 4 z M 11 9L18.832031 9 A 1.0001 1.0001 0 0 0 19.158203 9L30.832031 9 A 1.0001 1.0001 0 0 0 31.158203 9L39 9L39 45C39 45.554545 38.554545 46 38 46L12 46C11.445455 46 11 45.554545 11 45L11 9 z M 18.984375 13.986328 A 1.0001 1.0001 0 0 0 18 15L18 40 A 1.0001 1.0001 0 1 0 20 40L20 15 A 1.0001 1.0001 0 0 0 18.984375 13.986328 z M 24.984375 13.986328 A 1.0001 1.0001 0 0 0 24 15L24 40 A 1.0001 1.0001 0 1 0 26 40L26 15 A 1.0001 1.0001 0 0 0 24.984375 13.986328 z M 30.984375 13.986328 A 1.0001 1.0001 0 0 0 30 15L30 40 A 1.0001 1.0001 0 1 0 32 40L32 15 A 1.0001 1.0001 0 0 0 30.984375 13.986328 z" fill="#F8F8F8" />
</svg>